<?xml version="1.0" encoding="utf-8"?>
<!-- Generator: Adobe Illustrator 23.0.4, SVG Export Plug-In . SVG Version: 6.00 Build 0)  -->
<svg version="1.1" id="Layer_1" xmlns="http://www.w3.org/2000/svg" xmlns:xlink="http://www.w3.org/1999/xlink" x="0px" y="0px"
	 viewBox="0 0 235 107" style="enable-background:new 0 0 235 107;" xml:space="preserve">
<style type="text/css">
	.st0{fill:none;}
	.st1{fill:#007A33;}
	.st2{display:none;opacity:0.5;}
	.st3{display:inline;}
	.st4{fill:#FFFFFF;}
	.st5{font-family:'MyriadPro-Regular';}
	.st6{font-size:5px;}
	.st7{font-family:'SourceSansPro-Semibold';}
	.st8{font-size:15px;}
</style>
<g transform="translate(-1546.526 -809.317)">
	<g id="Group_15" transform="translate(1546.526 809.317)">
		<line id="Line_1" class="st0" x1="30.8" y1="25" x2="30.8" y2="25"/>
		<line id="Line_2" class="st0" x1="30.4" y1="25.4" x2="30.4" y2="25.4"/>
		<g id="Group_7" transform="translate(75.007 68.875)">
			<path id="Path_1202" class="st1" d="M13.3,16.4c-0.7-0.4-2.1,0.4-2.1,0.4c-0.6-1.7-1.4-3.3-2.4-4.7C8.8,12.1,13.1,16.1,13.3,16.4
				c0.8-2,0.3-4.2-1.3-5.6C7.8,6.9,0-0.2,0-0.2c2.5,5.7,3.2,12,2.1,18.1l4.1,0.7l0.6,0.7c0,0,4.7,0.6,5.4,1.3c0,0,1.7,1.1-0.2,2.6
				c1.5-0.3,2.9-1,4.1-2.1c0,0,1.3-1.1-0.2-2.8L13.3,16.4"/>
		</g>
		<path id="Path_1203" class="st1" d="M88.3,85.5L88.3,85.5"/>
		<g id="Group_8">
			<path id="Path_1204" class="st1" d="M66.4,60.7L8,6.2C6.4,4.6,5.7,2.2,6.3,0L1.7,10.5c-1.3,3.4,0.6,5.4,2.1,6.5
				C5,18.1,50.2,54.7,50.2,54.7v1.5L5.4,21.7c-1.3-1.1-2-2.8-1.9-4.5l-3.2,6.7c-1.5,3.7,2.2,6.2,3.9,7.3s46.1,32.3,46.1,32.3
				l0.4,1.9c0,0-43.3-28.9-45-29.9c-1.9-1.1-1.9-3.9-1.9-3.9l-3.2,6.7C-0.7,41.1,3,43,4.7,44.1C6,44.8,30.1,59.2,50.1,71.2H24.4
				c-3.7,0-5-1.1-5-1.1l3.5,3.2c0.6,0.6,2.2,2.4,4.5,2.4h9.5l1.9,0.7L30.4,77c-1.5,0.2-3-0.1-4.3-0.9l3.7,3.5
				c1.1,0.9,1.9,1.7,3.7,1.7c1.9-0.2,12.3-1.9,12.3-1.9l1.7,0.7l-11,2.4c-1.5,0.3-3,0.1-4.3-0.7l3.4,3.4c1.5,1.3,2.8,2.2,7.3,0.9
				c1.9-0.6,10.6-3.4,10.6-3.4l5.8,2.4c3.6,4.9,8,9.1,13.1,12.3c-0.8,1-0.8,2.4-0.2,3.5c1.1-2.3,3.5-3.6,6-3.4
				c1.7,0.2,1.3,2.4,1.3,2.2c1.1-1.3,2.1-3,0.9-4.5c-1.3-1.7-4.7-0.2-4.7-0.2l-3.4-6l4.5-2.6C78.9,71.1,66.4,60.7,66.4,60.7"/>
		</g>
		<path id="Path_1205" class="st1" d="M63.2,38.1c-0.7-1-27.8-31.4-27.8-31.4C33,4.1,33.9,2,33.9,1.8L30.8,9
			c-0.7,1.9,0.6,3.2,1.5,4.3c1.1,1.3,29.5,31,29.5,31L61.6,46L34.7,18.9c-2.2-2.2-1.5-3.9-1.5-4.1l-2.8,6.5
			c-0.6,2.1,1.5,3.4,2.8,4.7c1.5,1.5,31.5,29.5,34,31.7c3.3,3.1,5.9,6.9,7.8,11C78,53.4,66.2,41.4,63.2,38.1"/>
		<path id="Path_1206" class="st1" d="M33.9,1.9L33.9,1.9"/>
		<path id="Path_1207" class="st1" d="M33.2,14.7L33.2,14.7"/>
		<g id="Group_10" transform="translate(60.634 9.332)">
			<path id="Path_1208" class="st1" d="M126,0.6l-5,14h7.7l2.1-5.4h7.5v38.5H134l-3.2,8.6h21.5l3.2-8.6h-6V9.1h9v5.4h5.2l5.2-14.2
				L126,0.6"/>
			<path id="Path_1209" class="st1" d="M39.9,0.6l-3.2,8.6h5.4v25.2c0,4.7-0.7,7.3-3.2,9.5c-1.7,1.9-4.9,3-7.8,3
				c-3.4,0.1-6.6-1.1-9.1-3.4c-2.1-2.1-3.2-5.6-3.2-10.6V0.6H3.2L0,9.1h6.7V33c0,22.6,17.5,24.3,23,24.3c14,0,23-9,23-23V9h3.9
				l3.2-8.6L39.9,0.6"/>
			<path id="Path_1210" class="st1" d="M116.1,9.1v47h-6.5c0,0-30.6-32.3-32.7-34.3v25.8h6l-3.2,8.8H59.9l3.2-8.8h3.4V9.1h-7.1
				l3.2-8.6h12.1c0,0,23.3,24.5,31.5,33V9.3h-6l3.2-8.8h20.2l-3.2,8.8L116.1,9.1"/>
		</g>
		<g id="Group_14" transform="translate(88.632 81.194)" class="st2">
			<g id="Group_11" transform="translate(20.159)" class="st3">
				<path id="Path_1213" class="st1" d="M5.4,10.1c-1.7,0-3.4-0.6-3.9-1.5C0.9,7.8,0.9,7.1,0.9,3.7V1.3c0-0.4-0.6-0.4-0.7-0.4H0
					l0.2-0.6h3.5L3.5,0.9c-0.4,0-0.9,0-0.9,0.6v4.3c0,1.3,0,3.4,2.6,3.4c1.9,0,2.8-0.9,2.8-3V1.3c0-0.4-0.7-0.4-0.7-0.4l0.2-0.6h2.6
					L9.9,0.9H9.7c-0.2,0-0.6,0-0.6,0.6v4.3C9.1,6.9,8.8,8,8.2,9C7.5,9.7,6.5,10.1,5.4,10.1"/>
				<path id="Path_1214" class="st1" d="M20,9.9c-1.3-1.5-2.2-2.2-2.8-3l-1-0.9l-0.9-1.1c-0.9-1.1-1.7-1.9-2.1-2.2v7.1H11l0.2-0.6
					c0.4,0,0.7,0,0.7-0.6V1.3c0-0.4-0.4-0.4-0.7-0.4l0.2-0.6h1.5l2.8,3.2c0,0,3,3.2,3.7,3.9v-7h2.4V1c-0.2,0-0.9,0-0.9,0.4
					c0,0-0.2,3.9-0.2,5v3.5H20"/>
				<path id="Path_1215" class="st1" d="M23.9,9.1L23.9,9.1c0.4,0,0.7,0,0.7-0.4V1.1c0-0.4-0.6-0.4-0.9-0.4h-0.2l0.2-0.6h3.2
					l-0.2,0.6c-0.4,0-0.6,0-0.6,0.4v7.7c0,0.2,0.2,0.2,0.4,0.4h0.7L27,9.8h-3.2V9.1"/>
				<path id="Path_1216" class="st1" d="M32.5,9.9c0,0-0.9-2.2-2.1-4.9c-0.7-1.5-1.5-3-1.9-3.7l-0.2-0.2c0-0.2-0.4-0.2-0.6-0.2h-0.2
					l0.2-0.6h1.9l2.8,5.8c0.4,1.1,0.6,1.5,0.7,2.1c0.4-1.1,0.8-2.3,1.3-3.4c0,0,1.3-2.8,1.5-3.4l0.4-1.1h1.9v0.6
					c-0.2,0-0.6,0-1.1,0.9s-0.9,1.8-1.3,2.8l-2.2,5.2L32.5,9.9"/>
				<path id="Path_1217" class="st1" d="M56.9,10.1c-1.6,0.1-3.1-0.5-4.1-1.7c-1.3-1.3-2.4-2.7-3.5-4.1v5.4h-2.4L47,9.1
					c0.4,0,0.6,0,0.7-0.2V1.1c0-0.4-0.6-0.4-0.7-0.4l0.2-0.6h3.9c0.9,0,2.6,0.4,2.6,1.7c0,1.5-1.3,2.2-2.6,2.6
					C55,8.5,56,9.1,57.6,9.1H58c0.7-0.2,2.1-0.7,2.1-2.1c0-0.7,0-1.7-2.1-1.7c-1.7-0.2-2.6-0.9-2.6-2.2c0-0.8,0.2-1.5,0.7-2.1
					c0.8-0.6,1.8-1,2.9-1c0.8-0.1,1.5,0.2,2.1,0.7l-0.2,1.7h-0.6l-0.2-0.7c0-0.2-0.7-0.6-1.7-0.6c-1.1,0-1.7,0.6-1.7,1.5
					s0.7,1.5,2.2,1.7c1.7,0.2,2.4,0.9,2.4,2.2C61.4,8.4,59.2,10.1,56.9,10.1 M49.3,1.1v3.2c1.7-0.2,2.6-0.7,2.6-2.1
					c0-1.1-1.1-1.3-1.9-1.3C49.5,0.9,49.5,1.1,49.3,1.1"/>
				<path id="Path_1218" class="st1" d="M63.3,9.3L63.3,9.3c0.4,0,0.7,0,0.7-0.4V1.3c0-0.4-0.4-0.4-0.7-0.4h-0.2l0.2-0.6h3.2
					l-0.2,0.6c-0.4,0-0.7,0-0.7,0.4V9c0,0.2,0.2,0.2,0.2,0.4h0.7L66.3,10h-3.2L63.3,9.3"/>
				<path id="Path_1219" class="st1" d="M79.1,9.9h-1.7l0.2-0.6c0,0,0.7,0,0.7-0.4V6.3c0-0.6-0.4-0.9-0.9-1.9
					C77.2,4,77,3.7,76.7,3.5c-1.5-2.2-1.7-2.2-2.6-2.2h-2V9c0,0.2,0.2,0.2,0.2,0.4H73L72.8,10h-3.2l0.2-0.6h0.4c0.2,0,0.6,0,0.6-0.4
					V1.1h-2.4c-0.6,0-0.7,0.7-0.7,0.7l-0.4-0.2l0.6-1.5h7.5c1.5,0,1.7,0.6,2.6,1.9c0.2,0.3,0.4,0.6,0.6,0.9c0.3,0.4,0.5,0.9,0.7,1.3
					L79.5,5c0.2-0.4,1.3-2.2,2.1-3.4l0.7-1.1c0.1-0.1,0.2-0.2,0.2-0.4h1.7v0.2c-0.5,0.2-0.9,0.5-1.1,0.9c-0.2,0.2-0.2,0.4-0.4,0.6
					c-0.9,1.1-2.8,3.7-2.8,4.7V9c0,0.2,0.2,0.2,0.2,0.4h0.7L80.6,10L79.1,9.9"/>
				<path id="Path_1220" class="st1" d="M43.9,9.9h-5L39,9.3c0.4,0,0.7-0.3,0.7-0.7l0,0V1.1c0-0.4-0.4-0.4-0.6-0.4H39l0.2-0.6h4.7
					c0.4,0,0.8,0,1.1,0.2v1.3L44.4,2c0-0.6-0.2-0.9-1.5-0.9h-1.5v3.2h3.4l-0.4,1.1h-3V9h3.2V7.7l0.7,0.6V10L43.9,9.9"/>
			</g>
			<g id="Group_13" transform="translate(0 14.373)" class="st3">
				<path id="Path_1221" class="st1" d="M4.7,10.3C2.2,10.4,0.1,8.6,0,6.1C0,6,0,5.8,0,5.6c-0.1-1.9,0.9-3.7,2.6-4.5
					c0.9-0.4,1.8-0.6,2.8-0.6c2.8,0,4.5,1.7,4.5,4.3C10.3,7.8,7.8,10.3,4.7,10.3 M5,1.3C3.7,1.3,2.5,2,1.9,3.2
					c-0.3,0.6-0.4,1.3-0.4,2C1.4,6.6,2,8,3.2,8.8c0.6,0.4,1.3,0.6,2.1,0.6c2.1,0,3.5-1.7,3.5-4.1c0-1.7-0.6-2.8-1.9-3.4
					C6.4,1.5,5.7,1.3,5,1.3"/>
				<path id="Path_1222" class="st1" d="M11.9,9.3c0.4,0,0.7-0.2,0.7-0.6V8.6V1.1c0-0.4-0.6-0.4-0.7-0.4h-0.2l0.2-0.6h4.9
					c0.4,0,0.8,0,1.1,0.2v1.3L17.3,2c0-0.4-0.2-0.9-1.5-0.9h-1.5v3.2h3.4l-0.4,0.9h-3V9c0,0.2,0.2,0.2,0.2,0.4h0.7L15,10h-3.4
					L11.9,9.3"/>
				<path id="Path_1223" class="st1" d="M32.5,10.1c-1.3-1.5-2.1-2.2-2.8-3l-0.9-0.9l-0.8-1c-1.1-1.1-1.9-2.1-2.2-2.4v7.1h-2.2
					l0.2-0.6c0.4,0,0.7,0,0.7-0.6V1.5c0-0.4-0.4-0.4-1.1-0.4h-0.2l0.2-0.6h1.9L28,3.7c0,0,3,3.2,3.7,3.9v-7H34l-0.2,0.6
					c-0.2,0-0.7,0-0.7,0.4c0,0-0.2,3.9-0.2,5v3.5H32.5"/>
				<path id="Path_1224" class="st1" d="M56,10.8c-0.6-0.4-1.1-0.9-1.5-1.5c-0.2-0.4-0.6-0.6-0.7-0.9c-1.3-1.3-2.4-2.7-3.5-4.1v5.4
					h-2.4L48,9.1c0.4,0,0.6,0,0.7-0.2V8.8l0.2-4.5c0.1-0.9,0-1.8-0.2-2.6V1.3c0-0.4-0.6-0.4-0.7-0.4l0.2-0.6h3.7
					c0.9,0,2.6,0.4,2.6,1.7c0,1.5-1.1,2.1-2.2,2.4c-0.1,0-0.3,0.1-0.4,0.2c0.8,0.7,1.5,1.4,2.2,2.2c0.9,1,1.8,1.9,2.8,2.8
					c0.4,0.4,0.8,0.8,1.3,1.1L56,10.8 M50.8,1.1h-0.6v3.2c0.5,0,1-0.1,1.5-0.4c0.7-0.3,1.1-0.9,1.1-1.7C52.6,1.5,52.1,1.1,50.8,1.1"
					/>
				<path id="Path_1225" class="st1" d="M40.3,10.1c-2.4,0.1-4.5-1.7-4.7-4.1c0-0.2,0-0.4,0-0.5c-0.1-1.9,0.9-3.8,2.6-4.7
					C39.1,0.4,40,0.2,41,0.2c2.8,0,4.7,1.7,4.7,4.3c0.3,2.8-1.8,5.3-4.7,5.6C40.8,10.1,40.6,10.1,40.3,10.1 M40.7,1.1
					C39.4,1,38.1,1.8,37.5,3c-0.2,0.7-0.4,1.4-0.4,2.1c-0.1,1.4,0.5,2.8,1.7,3.5c0.6,0.4,1.3,0.6,2.1,0.6c2.1,0,3.5-1.7,3.5-4.1
					c0.1-1.4-0.6-2.7-1.9-3.4C42,1.3,41.4,1.1,40.7,1.1"/>
				<path id="Path_1226" class="st1" d="M58.6,9.3c0.2,0,0.6,0,0.6-0.4V1.3h-2.4c-0.6,0-0.7,0.7-0.7,0.7l-0.4-0.2l0.6-1.5H64
					l-0.2,1.5h-0.4c0-0.2-0.1-0.4-0.2-0.6C63,1,63,1,62.8,1h-2.1v8c0,0.2,0.2,0.2,0.4,0.4H62L61.8,10h-3L58.6,9.3"/>
				<path id="Path_1227" class="st1" d="M72.4,9.3L72.4,9.3c0.4,0,0.7,0,0.7-0.4V5.4h-5.4V9c0,0.2,0.2,0.2,0.4,0.4h0.7L68.6,10h-3.2
					l0.2-0.6h0.2c0.2,0,0.6,0,0.6-0.4l0.2-4.5L66,1.3c0-0.4-0.4-0.4-0.7-0.4h-0.2l0.2-0.6h3.2l-0.2,0.6c-0.4,0-0.7,0-0.7,0.4v3h5.6
					v-3c0-0.4-0.4-0.4-0.7-0.4h-0.2l0.2-0.6h3.2l-0.2,0.6c-0.4,0-0.7,0-0.7,0.4v0.4c0,0.6-0.2,1.5-0.2,2.6c0,1.3,0,2.6,0.2,3.9V9
					c0,0.4,0.6,0.4,0.7,0.4h0.2L75.5,10h-3.2L72.4,9.3"/>
				<path id="Path_1228" class="st1" d="M96.1,10.8c0.4-0.3,0.8-0.6,1.1-0.9c1.2-1.3,2.3-2.7,3.4-4.1l0.4-0.4
					c-0.2-0.2-0.2-0.4-0.4-0.4c-0.2-0.2-0.4-0.6-0.6-0.7c-0.3-0.4-0.5-0.8-0.7-1.3c-1.1-1.7-1.3-1.9-2.2-1.9l0.2-0.6h2.1l2.2,3.4
					l0.4,0.4c0.1-0.1,0.2-0.2,0.2-0.4c0.4-0.6,0.8-1.2,1.3-1.7c0.6-0.6,0.9-1.3,1.1-1.3c0.1-0.1,0.2-0.2,0.2-0.4h1.7
					c-0.4,0.3-0.7,0.6-0.9,0.9l-0.7,0.9c-0.6,0.7-1.5,1.9-2.1,2.6l-0.2,0.2v0.2c0,0.1,0.1,0.2,0.2,0.2l0,0c0.4,0.6,1.7,2.6,2.4,3.5
					c0.1,0.1,0.2,0.2,0.2,0.4l0.2-0.2l1.7-3.5l2.2-5.2h1.1c0,0,0.6,1.3,1.7,3.7c1.3,2.8,1.9,3.7,2.4,5c0.2,0.3,0.6,0.4,0.9,0.4
					l0.2-1.9h0.7l0.2,0.7c0,0.2,0.7,0.6,1.7,0.6c0.6,0,1.1-0.2,1.5-0.6c0.2-0.3,0.4-0.7,0.4-1.1c0-0.9-0.7-1.5-2.4-1.7
					s-2.6-0.9-2.6-2.2c0-0.6,0.2-1.2,0.6-1.7c0.8-1,1.9-1.5,3.2-1.5c0.4,0,0.9,0,1.3,0.2c0.6,0.2,0.7,0.4,0.7,0.6l-0.3,2H120
					l-0.2-0.7c0-0.2-0.7-0.6-1.7-0.6c-0.9-0.1-1.8,0.6-1.9,1.5c0,1.1,0.7,1.7,2.4,1.9s2.6,0.9,2.6,2.2c0,0.6-0.2,1.2-0.6,1.7
					c-0.8,1-1.9,1.5-3.2,1.5c-0.4,0-0.9,0-1.3-0.2h-0.4v0.2h-2.4L111.6,7h-3.7l-0.4,0.7c-0.4,0.7-0.6,1.3-0.7,1.7v0.4
					c0.2,0.1,0.5,0.2,0.7,0.2l-0.2,0.6H104c-0.6-0.7-1.3-2.1-1.9-2.8l-0.4-0.6L101.5,7l-0.2,0.2l-1.1,1.3c-0.9,1.1-1.9,2.4-2.1,2.6
					L98,11.4L96.1,10.8L96.1,10.8 M108.4,5.4h2.8l-0.6-1.3L110.3,3c-0.2-0.3-0.3-0.6-0.4-0.9C109.5,3.2,109,4.3,108.4,5.4L108.4,5.4
					"/>
				<path id="Path_1229" class="st1" d="M83.6,9.3c0.2,0,0.6,0,0.6-0.4V1.3h-2.4c-0.6,0-0.7,0.7-0.7,0.7l-0.4-0.2l0.6-1.5H89
					l-0.2,1.5h-0.4c0-0.2-0.1-0.4-0.2-0.6C88,1,88,1,87.8,1h-2.1v7.7C85.9,9,86,9,86.2,9.1h0.4l-0.2,0.6h-3L83.6,9.3"/>
				<path id="Path_1230" class="st1" d="M95.6,10.1H90l0.2-0.6c0.1,0,0.3-0.1,0.4-0.2C90.8,9.1,91,8.9,91,8.7V1.5
					c0-0.4-0.6-0.4-0.7-0.4H90l0.2-0.6H95c0.4,0,0.8,0,1.1,0.2V2l-0.6,0.4c0-0.6-0.2-0.9-1.5-0.9h-1.5v3.2H96l-0.4,1.1h-3.2v3.5h3V8
					l0.7,0.6v1.7l0,0L95.6,10.1"/>
			</g>
		</g>
	</g>
</g>
<g>
	<g>
		<circle class="st1" cx="226.6" cy="26.6" r="2.8"/>
		<circle class="st4" cx="226.6" cy="26.6" r="2.3"/>
	</g>
	<text transform="matrix(1 0 0 1 225.3155 28.2322)" class="st1 st5 st6">R</text>
</g>
<text transform="matrix(1.08 0 0 1 107.2676 91.0884)" class="st1 st7 st8">UNIVERSITY</text>
<text transform="matrix(1.08 0 0 1 88.4756 106.0884)" class="st1 st7 st8">OF NORTH TEXAS</text>
</svg>
